<svg xmlns="http://www.w3.org/2000/svg" xmlns:xlink="http://www.w3.org/1999/xlink" width="500" zoomAndPan="magnify" viewBox="0 0 375 374.999991" height="500" preserveAspectRatio="xMidYMid meet" version="1.0"><defs><g/><clipPath id="85f1801a40"><path d="M 62 65.425781 L 337.828125 65.425781 L 337.828125 234.925781 L 62 234.925781 Z M 62 65.425781 " clip-rule="nonzero"/></clipPath><clipPath id="9a4b93799c"><path d="M 58 219 L 135 219 L 135 234.925781 L 58 234.925781 Z M 58 219 " clip-rule="nonzero"/></clipPath><clipPath id="e557956261"><path d="M 108 65.425781 L 133 65.425781 L 133 81 L 108 81 Z M 108 65.425781 " clip-rule="nonzero"/></clipPath><clipPath id="aa9332f28f"><path d="M 28.828125 127 L 54 127 L 54 143 L 28.828125 143 Z M 28.828125 127 " clip-rule="nonzero"/></clipPath><clipPath id="55948038b5"><path d="M 175.855469 94.082031 L 288.351562 94.082031 L 288.351562 206.582031 L 175.855469 206.582031 Z M 175.855469 94.082031 " clip-rule="nonzero"/></clipPath><clipPath id="e888bbb906"><path d="M 232.101562 94.082031 C 201.039062 94.082031 175.855469 119.265625 175.855469 150.332031 C 175.855469 181.398438 201.039062 206.582031 232.101562 206.582031 C 263.167969 206.582031 288.351562 181.398438 288.351562 150.332031 C 288.351562 119.265625 263.167969 94.082031 232.101562 94.082031 Z M 232.101562 94.082031 " clip-rule="nonzero"/></clipPath><clipPath id="6ce5b79a57"><path d="M 189 110.019531 L 275 110.019531 L 275 197 L 189 197 Z M 189 110.019531 " clip-rule="nonzero"/></clipPath><clipPath id="7bb6604138"><path d="M 188.136719 110.019531 L 275.886719 110.019531 L 275.886719 197.769531 L 188.136719 197.769531 Z M 188.136719 110.019531 " clip-rule="nonzero"/></clipPath></defs><path fill="#291b25" d="M 228.285156 104.070312 L 222.351562 139.8125 C 224.34375 139.238281 226.355469 138.355469 228.324219 137.675781 C 233.574219 135.859375 240.332031 133.054688 245.777344 131.011719 C 249.628906 129.5625 253.628906 128.023438 257.4375 126.539062 C 259.003906 125.925781 268.46875 122.425781 269.074219 122.019531 C 268.5 120.683594 263.167969 115.398438 261.925781 114.476562 C 261.246094 113.980469 260.625 113.390625 259.878906 112.886719 C 259.132812 112.382812 258.46875 111.898438 257.648438 111.339844 C 253.371094 108.414062 247.203125 105.910156 241.914062 104.839844 C 238.195312 104.085938 232.117188 103.429688 228.285156 104.070312 Z M 190.898438 129.707031 C 191.472656 130.429688 197.863281 135.617188 199.175781 136.808594 C 202.5 139.835938 207.53125 143.6875 210.96875 146.820312 C 212.863281 148.539062 215.699219 150.734375 217.75 152.519531 C 217.847656 152.371094 217.78125 152.542969 217.878906 152.21875 L 225.796875 104.332031 C 215.058594 105.851562 207.34375 110.433594 200.484375 116.664062 C 199.144531 117.886719 198.1875 119.125 196.851562 120.585938 C 196.316406 121.175781 195.644531 122.027344 195.191406 122.707031 C 193.871094 124.675781 193.53125 125.015625 192.21875 127.292969 C 191.796875 128.015625 191.351562 129.050781 190.90625 129.714844 Z M 237.117188 136.871094 C 237.472656 137.132812 237.78125 137.472656 238.175781 137.777344 C 238.605469 138.105469 238.90625 138.371094 239.386719 138.742188 C 239.832031 139.082031 240.164062 139.269531 240.648438 139.667969 L 245.453125 143.445312 C 245.882812 143.769531 246.230469 144.109375 246.644531 144.425781 C 247.519531 145.097656 248.105469 145.613281 248.996094 146.289062 L 268.191406 161.390625 C 269.011719 161.984375 269.851562 162.679688 270.65625 163.289062 L 275.394531 167.015625 C 276.625 164.59375 277.816406 159.429688 278.214844 156.320312 C 279.480469 146.546875 277.800781 136.878906 273.207031 128.332031 C 272.363281 126.765625 271.472656 125.472656 270.65625 124.054688 Z M 238.71875 195.796875 C 241.945312 195.773438 248.3125 193.558594 250.949219 192.410156 C 254.84375 190.722656 259.992188 187.53125 262.851562 184.839844 C 263.613281 184.121094 264.210938 183.640625 264.894531 182.960938 C 265.605469 182.257812 266.058594 181.683594 266.8125 180.953125 C 267.414062 180.367188 267.964844 179.542969 268.515625 178.871094 C 270.078125 176.964844 273.816406 171.59375 274.429688 169.226562 L 247.117188 147.835938 C 246.644531 148.792969 246.238281 152.503906 245.996094 153.871094 L 240.804688 183.851562 C 240.121094 187.765625 239.546875 191.980469 238.722656 195.796875 Z M 242.238281 161.3125 L 195.863281 178.261719 C 197.28125 180.160156 199.339844 182.492188 201.121094 184 C 201.722656 184.507812 202.378906 185.269531 203.035156 185.714844 C 204.308594 186.585938 205.5625 187.757812 207.3125 188.851562 C 212.3125 191.988281 216.730469 193.902344 222.839844 195.269531 C 225.617188 195.886719 233.542969 196.800781 236.28125 196.046875 L 242.246094 161.3125 Z M 189.890625 132.089844 C 189.269531 133.097656 188.394531 135.949219 188.011719 137.316406 C 184.65625 149.003906 186.074219 161.261719 191.714844 171.886719 L 194.292969 176.21875 C 196.007812 175.765625 200.660156 173.902344 202.785156 173.164062 C 205.601562 172.183594 208.308594 171.148438 211.097656 170.136719 C 213.867188 169.144531 216.640625 168.140625 219.402344 167.105469 C 220.15625 166.828125 227.109375 164.519531 227.667969 163.953125 Z M 189.890625 132.089844 " fill-opacity="1" fill-rule="evenodd"/><path fill="#291b25" d="M 81.578125 96.875 L 48.792969 96.875 C 44.5625 96.875 41.097656 100.335938 41.097656 104.566406 C 41.097656 108.796875 44.5625 112.261719 48.792969 112.261719 L 81.578125 112.261719 C 85.808594 112.261719 89.269531 108.796875 89.269531 104.566406 C 89.269531 100.335938 85.808594 96.875 81.578125 96.875 Z M 81.578125 96.875 " fill-opacity="1" fill-rule="evenodd"/><g clip-path="url(#85f1801a40)"><path fill="#8c52ff" d="M 235.519531 205.859375 C 234.484375 205.917969 233.445312 205.941406 232.398438 205.941406 C 232.296875 205.941406 232.191406 205.941406 232.09375 205.941406 C 231.996094 205.941406 231.898438 205.941406 231.792969 205.941406 C 201.105469 205.941406 176.214844 181.050781 176.214844 150.363281 C 176.214844 119.675781 201.105469 94.785156 231.792969 94.785156 C 231.890625 94.785156 231.988281 94.785156 232.09375 94.785156 C 232.191406 94.785156 232.292969 94.785156 232.398438 94.785156 C 233.445312 94.785156 234.484375 94.816406 235.519531 94.867188 C 264.761719 96.488281 287.972656 120.714844 287.972656 150.363281 C 287.972656 180.003906 264.761719 204.234375 235.519531 205.859375 Z M 278.75 65.71875 L 233.519531 65.71875 C 233.046875 65.695312 232.578125 65.6875 232.101562 65.6875 C 231.628906 65.679688 231.160156 65.6875 230.683594 65.71875 L 151.128906 65.71875 C 146.898438 65.71875 143.4375 69.179688 143.4375 73.410156 C 143.4375 77.640625 146.898438 81.105469 151.128906 81.105469 L 182.664062 81.105469 C 182.730469 81.105469 182.792969 81.113281 182.859375 81.113281 L 182.867188 81.113281 C 182.996094 81.121094 183.125 81.125 183.253906 81.140625 L 183.261719 81.140625 C 183.320312 81.148438 183.386719 81.15625 183.449219 81.164062 C 183.636719 81.1875 183.824219 81.21875 184.015625 81.253906 L 184.023438 81.253906 L 184.203125 81.292969 L 184.382812 81.339844 L 184.566406 81.390625 L 184.738281 81.445312 L 184.753906 81.445312 L 184.925781 81.496094 L 184.941406 81.496094 L 185.054688 81.535156 C 185.199219 81.585938 185.339844 81.640625 185.484375 81.699219 C 188.238281 82.875 190.175781 85.613281 190.175781 88.78125 C 190.175781 93.011719 186.714844 96.476562 182.484375 96.476562 L 112.914062 96.476562 C 108.683594 96.476562 105.222656 99.9375 105.222656 104.167969 C 105.222656 108.398438 108.683594 111.859375 112.914062 111.859375 L 142.847656 111.859375 L 142.992188 111.867188 L 143.054688 111.867188 L 143.1875 111.875 L 143.234375 111.875 L 143.40625 111.890625 L 143.421875 111.890625 L 143.589844 111.90625 L 143.640625 111.914062 L 143.769531 111.929688 L 143.824219 111.9375 L 143.980469 111.957031 L 143.996094 111.957031 L 144.167969 111.988281 L 144.214844 111.996094 L 144.34375 112.027344 L 144.394531 112.042969 L 144.53125 112.070312 L 144.5625 112.078125 L 144.726562 112.125 L 144.765625 112.132812 L 144.894531 112.171875 L 144.945312 112.183594 L 145.058594 112.222656 L 145.113281 112.238281 L 145.269531 112.289062 L 145.285156 112.296875 L 145.429688 112.351562 L 145.472656 112.367188 L 145.59375 112.410156 L 145.640625 112.433594 L 145.789062 112.5 L 145.796875 112.5 L 145.949219 112.578125 L 145.996094 112.601562 L 146.109375 112.652344 L 146.152344 112.675781 L 146.273438 112.742188 L 146.296875 112.757812 L 146.445312 112.839844 L 146.476562 112.855469 L 146.589844 112.925781 L 146.636719 112.945312 L 146.75 113.015625 L 146.777344 113.039062 L 146.921875 113.128906 L 146.945312 113.144531 L 147.058594 113.226562 L 147.101562 113.257812 L 147.203125 113.332031 L 147.238281 113.363281 L 147.375 113.46875 L 147.503906 113.574219 L 147.539062 113.601562 L 147.636719 113.6875 L 147.675781 113.714844 L 147.789062 113.8125 L 147.804688 113.828125 L 147.925781 113.941406 L 148.046875 114.0625 L 148.082031 114.101562 L 148.175781 114.191406 L 148.203125 114.222656 L 148.316406 114.34375 L 148.339844 114.363281 L 148.429688 114.460938 L 148.46875 114.5 L 148.550781 114.597656 L 148.574219 114.628906 L 148.679688 114.765625 L 148.6875 114.773438 L 148.785156 114.894531 L 148.816406 114.9375 L 148.882812 115.027344 L 148.914062 115.074219 L 149.003906 115.203125 L 149.011719 115.21875 L 149.109375 115.359375 L 149.132812 115.390625 L 149.199219 115.503906 L 149.222656 115.550781 L 149.289062 115.667969 L 149.304688 115.691406 L 149.386719 115.84375 L 149.410156 115.878906 L 149.472656 115.992188 L 149.492188 116.039062 L 149.554688 116.152344 L 149.570312 116.191406 L 149.644531 116.339844 L 149.652344 116.363281 L 149.710938 116.5 L 149.734375 116.542969 L 149.78125 116.664062 L 149.796875 116.710938 L 149.804688 116.742188 C 149.863281 116.882812 149.910156 117.035156 149.960938 117.183594 C 150.195312 117.925781 150.324219 118.703125 150.324219 119.515625 C 150.324219 123.746094 146.863281 127.207031 142.628906 127.207031 L 69.78125 127.207031 C 65.550781 127.207031 62.089844 130.671875 62.089844 134.902344 C 62.089844 139.132812 65.550781 142.59375 69.78125 142.59375 L 126.371094 142.59375 L 126.363281 142.617188 C 126.558594 142.632812 126.746094 142.65625 126.9375 142.679688 C 130.640625 143.226562 133.496094 146.441406 133.496094 150.289062 C 133.496094 154.132812 130.640625 157.347656 126.9375 157.898438 C 126.746094 157.929688 126.558594 157.949219 126.363281 157.957031 L 126.371094 157.980469 L 85.574219 157.980469 C 81.34375 157.980469 77.882812 161.441406 77.882812 165.671875 C 77.882812 169.90625 81.34375 173.367188 85.574219 173.367188 L 142.628906 173.367188 C 146.863281 173.367188 150.324219 176.828125 150.324219 181.058594 C 150.324219 181.875 150.195312 182.652344 149.960938 183.390625 C 149.917969 183.539062 149.863281 183.683594 149.804688 183.835938 L 149.796875 183.859375 L 149.78125 183.902344 L 149.734375 184.015625 L 149.710938 184.070312 L 149.660156 184.195312 L 149.652344 184.21875 L 149.585938 184.371094 L 149.5625 184.414062 L 149.507812 184.527344 L 149.488281 184.582031 L 149.433594 184.6875 L 149.410156 184.734375 L 149.328125 184.875 L 149.3125 184.90625 L 149.246094 185.019531 L 149.214844 185.0625 L 149.148438 185.167969 L 149.125 185.207031 L 149.035156 185.351562 L 149.019531 185.375 L 148.9375 185.496094 L 148.898438 185.539062 L 148.832031 185.628906 L 148.800781 185.675781 L 148.710938 185.796875 L 148.695312 185.8125 L 148.589844 185.9375 L 148.558594 185.96875 L 148.476562 186.066406 L 148.4375 186.105469 L 148.355469 186.203125 L 148.324219 186.234375 L 148.210938 186.355469 L 147.933594 186.632812 L 147.8125 186.746094 L 147.789062 186.761719 L 147.683594 186.851562 L 147.644531 186.890625 L 147.554688 186.964844 L 147.511719 187.003906 L 147.390625 187.101562 L 147.382812 187.109375 L 147.253906 187.207031 L 147.214844 187.238281 L 147.117188 187.3125 L 147.074219 187.34375 L 146.960938 187.425781 L 146.9375 187.441406 L 146.792969 187.53125 L 146.765625 187.554688 L 146.652344 187.621094 L 146.605469 187.644531 L 146.492188 187.710938 L 146.460938 187.726562 L 146.3125 187.808594 L 146.289062 187.824219 L 146.167969 187.890625 L 146.121094 187.914062 L 146.007812 187.96875 L 145.964844 187.992188 L 145.8125 188.066406 L 145.804688 188.074219 L 145.65625 188.140625 L 145.609375 188.164062 L 145.488281 188.210938 L 145.445312 188.222656 L 145.300781 188.277344 L 145.285156 188.285156 L 145.128906 188.335938 L 145.074219 188.351562 L 144.960938 188.390625 L 144.910156 188.40625 L 144.78125 188.441406 L 144.742188 188.449219 L 144.578125 188.496094 L 144.546875 188.503906 L 144.410156 188.535156 L 144.359375 188.546875 L 144.328125 188.554688 C 143.90625 188.648438 143.492188 188.707031 143.082031 188.730469 L 143.039062 188.730469 L 142.941406 188.738281 L 112.960938 188.738281 C 108.730469 188.738281 105.265625 192.199219 105.265625 196.429688 C 105.265625 200.660156 108.730469 204.125 112.960938 204.125 L 182.527344 204.125 C 186.757812 204.125 190.222656 207.585938 190.222656 211.816406 C 190.222656 214.984375 188.28125 217.722656 185.53125 218.898438 C 185.386719 218.957031 185.242188 219.019531 185.101562 219.0625 L 185.546875 219.507812 L 151.183594 219.507812 C 146.953125 219.507812 143.492188 222.972656 143.492188 227.203125 C 143.492188 231.433594 146.953125 234.894531 151.183594 234.894531 L 230.746094 234.894531 L 230.707031 234.894531 C 231.191406 234.917969 231.671875 234.933594 232.15625 234.925781 C 232.636719 234.933594 233.121094 234.925781 233.601562 234.894531 L 233.566406 234.894531 L 290.886719 234.894531 C 316.542969 234.894531 337.535156 213.90625 337.535156 188.246094 L 337.535156 112.230469 C 337.535156 86.570312 316.542969 65.582031 290.886719 65.582031 L 278.796875 65.582031 Z M 278.75 65.71875 " fill-opacity="1" fill-rule="evenodd"/></g><path fill="#291b25" d="M 63.4375 158.019531 L 47.042969 158.019531 C 42.8125 158.019531 39.347656 161.480469 39.347656 165.710938 C 39.347656 169.941406 42.8125 173.402344 47.042969 173.402344 L 63.4375 173.402344 C 67.671875 173.402344 71.132812 169.941406 71.132812 165.710938 C 71.132812 161.480469 67.671875 158.019531 63.4375 158.019531 Z M 63.4375 158.019531 " fill-opacity="1" fill-rule="evenodd"/><g clip-path="url(#9a4b93799c)"><path fill="#291b25" d="M 126.921875 219.449219 L 66.0625 219.449219 C 61.832031 219.449219 58.371094 222.910156 58.371094 227.140625 C 58.371094 231.371094 61.832031 234.835938 66.0625 234.835938 L 126.921875 234.835938 C 131.152344 234.835938 134.613281 231.371094 134.613281 227.140625 C 134.613281 222.910156 131.152344 219.449219 126.921875 219.449219 Z M 126.921875 219.449219 " fill-opacity="1" fill-rule="evenodd"/></g><g clip-path="url(#e557956261)"><path fill="#291b25" d="M 125.171875 65.613281 L 116.089844 65.613281 C 111.859375 65.613281 108.398438 69.074219 108.398438 73.304688 C 108.398438 77.535156 111.859375 81 116.089844 81 L 125.171875 81 C 129.402344 81 132.863281 77.535156 132.863281 73.304688 C 132.863281 69.074219 129.402344 65.613281 125.171875 65.613281 Z M 125.171875 65.613281 " fill-opacity="1" fill-rule="evenodd"/></g><path fill="#291b25" d="M 82.164062 188.910156 L 73.085938 188.910156 C 68.855469 188.910156 65.390625 192.371094 65.390625 196.605469 C 65.390625 200.835938 68.855469 204.296875 73.085938 204.296875 L 82.164062 204.296875 C 86.398438 204.296875 89.859375 200.835938 89.859375 196.605469 C 89.859375 192.371094 86.398438 188.910156 82.164062 188.910156 Z M 82.164062 188.910156 " fill-opacity="1" fill-rule="evenodd"/><g clip-path="url(#aa9332f28f)"><path fill="#291b25" d="M 45.601562 127.335938 L 36.519531 127.335938 C 32.289062 127.335938 28.828125 130.800781 28.828125 135.03125 C 28.828125 139.261719 32.289062 142.722656 36.519531 142.722656 L 45.601562 142.722656 C 49.832031 142.722656 53.292969 139.261719 53.292969 135.03125 C 53.292969 130.800781 49.832031 127.335938 45.601562 127.335938 Z M 45.601562 127.335938 " fill-opacity="1" fill-rule="evenodd"/></g><g clip-path="url(#55948038b5)"><g clip-path="url(#e888bbb906)"><path fill="#ffffff" d="M 175.855469 94.082031 L 288.351562 94.082031 L 288.351562 206.582031 L 175.855469 206.582031 Z M 175.855469 94.082031 " fill-opacity="1" fill-rule="nonzero"/></g></g><g clip-path="url(#6ce5b79a57)"><path fill="#8c52ff" d="M 250.097656 158.742188 L 250.097656 110.992188 L 214.121094 110.992188 L 214.121094 158.742188 L 189.28125 158.742188 L 232.109375 196.652344 L 274.9375 158.742188 Z M 250.097656 158.742188 " fill-opacity="1" fill-rule="nonzero"/></g><g clip-path="url(#7bb6604138)"><path fill="#353333" d="M 232.109375 197.628906 C 231.878906 197.628906 231.648438 197.546875 231.464844 197.382812 L 188.632812 159.472656 C 188.332031 159.203125 188.222656 158.777344 188.367188 158.398438 C 188.511719 158.019531 188.875 157.765625 189.28125 157.765625 L 213.144531 157.765625 L 213.144531 110.996094 C 213.144531 110.457031 213.582031 110.019531 214.121094 110.019531 L 250.097656 110.019531 C 250.636719 110.019531 251.074219 110.457031 251.074219 110.996094 L 251.074219 157.765625 L 274.9375 157.765625 C 275.34375 157.765625 275.707031 158.019531 275.851562 158.398438 C 275.996094 158.777344 275.890625 159.203125 275.585938 159.472656 L 232.753906 197.382812 C 232.570312 197.546875 232.339844 197.628906 232.109375 197.628906 Z M 191.851562 159.71875 L 232.109375 195.351562 L 272.367188 159.71875 L 250.097656 159.71875 C 249.558594 159.71875 249.125 159.28125 249.125 158.742188 L 249.125 111.96875 L 215.097656 111.96875 L 215.097656 158.742188 C 215.097656 159.28125 214.660156 159.71875 214.121094 159.71875 Z M 191.851562 159.71875 " fill-opacity="1" fill-rule="nonzero"/></g><g fill="#291b25" fill-opacity="1"><g transform="translate(48.018221, 288.563419)"><g><path d="M 37.875 -37.234375 L 47.90625 -37.234375 L 40.015625 0 L 28.359375 0 L 24.25 -22.21875 L 20.125 0 L 8.46875 0 L 0.578125 -37.234375 L 11.140625 -37.234375 L 14.265625 -12.1875 L 19.25 -37.234375 L 29.171875 -37.234375 L 34.15625 -12.1875 Z M 37.875 -37.234375 "/></g></g></g><g fill="#291b25" fill-opacity="1"><g transform="translate(96.503002, 288.563419)"><g><path d="M 15.78125 -28.9375 L 25.46875 -28.9375 L 25.46875 0 L 15.609375 0 L 15.609375 -3.125 C 14.867188 -1.039062 13.164062 0 10.5 0 L 9.453125 0 C 4.304688 0 1.734375 -2.394531 1.734375 -7.1875 L 1.734375 -21.75 C 1.734375 -26.539062 4.304688 -28.9375 9.453125 -28.9375 L 10.5 -28.9375 C 13.476562 -28.9375 15.238281 -27.703125 15.78125 -25.234375 Z M 13.046875 -7.25 L 14.03125 -7.25 C 15.082031 -7.25 15.609375 -7.828125 15.609375 -8.984375 L 15.609375 -19.953125 C 15.609375 -21.109375 15.082031 -21.6875 14.03125 -21.6875 L 13.046875 -21.6875 C 12.078125 -21.6875 11.59375 -21.265625 11.59375 -20.421875 L 11.59375 -8.53125 C 11.59375 -7.675781 12.078125 -7.25 13.046875 -7.25 Z M 13.046875 -7.25 "/></g></g></g><g fill="#291b25" fill-opacity="1"><g transform="translate(124.283155, 288.563419)"><g><path d="M 12.1875 0 L 2.3125 0 L 2.3125 -38.796875 L 12.1875 -38.796875 Z M 12.1875 0 "/></g></g></g><g fill="#291b25" fill-opacity="1"><g transform="translate(138.782189, 288.563419)"><g><path d="M 12.1875 0 L 2.3125 0 L 2.3125 -38.796875 L 12.1875 -38.796875 Z M 12.1875 0 "/></g></g></g><g fill="#291b25" fill-opacity="1"><g transform="translate(153.281224, 288.563419)"><g><path d="M 2.3125 -37.234375 L 19.546875 -37.234375 C 25.234375 -37.234375 28.078125 -34.835938 28.078125 -30.046875 L 28.078125 -19.375 C 28.078125 -14.582031 25.234375 -12.1875 19.546875 -12.1875 L 12.46875 -12.1875 L 12.46875 0 L 2.3125 0 Z M 17.921875 -20.703125 L 17.921875 -28.703125 C 17.921875 -29.554688 17.4375 -29.984375 16.46875 -29.984375 L 12.46875 -29.984375 L 12.46875 -19.4375 L 16.46875 -19.4375 C 17.4375 -19.4375 17.921875 -19.859375 17.921875 -20.703125 Z M 17.921875 -20.703125 "/></g></g></g><g fill="#291b25" fill-opacity="1"><g transform="translate(182.511286, 288.563419)"><g><path d="M 2.140625 -31.84375 L 2.140625 -38.796875 L 12.359375 -38.796875 L 12.359375 -31.84375 Z M 12.1875 0 L 2.3125 0 L 2.3125 -28.9375 L 12.1875 -28.9375 Z M 12.1875 0 "/></g></g></g><g fill="#291b25" fill-opacity="1"><g transform="translate(197.01032, 288.563419)"><g><path d="M 18.734375 -14.96875 L 25.921875 0 L 15.953125 0 L 12.8125 -8.578125 L 9.96875 0 L 0.34375 0 L 6.953125 -14.796875 L 0 -28.9375 L 10.328125 -28.9375 L 12.8125 -20.875 L 15.3125 -28.9375 L 25.109375 -28.9375 Z M 18.734375 -14.96875 "/></g></g></g><g fill="#291b25" fill-opacity="1"><g transform="translate(222.934597, 288.563419)"><g><path d="M 2.3125 0 L 2.3125 -9.515625 L 12.296875 -9.515625 L 12.296875 0 Z M 2.3125 0 "/></g></g></g><g fill="#291b25" fill-opacity="1"><g transform="translate(237.549628, 288.563419)"><g><path d="M 24.765625 -37.234375 L 24.765625 -29.984375 L 17.578125 -29.984375 L 17.578125 0 L 7.421875 0 L 7.421875 -29.984375 L 0.296875 -29.984375 L 0.296875 -37.234375 Z M 24.765625 -37.234375 "/></g></g></g><g fill="#291b25" fill-opacity="1"><g transform="translate(262.60397, 288.563419)"><g><path d="M 10.265625 -28.9375 L 17.625 -28.9375 C 20.570312 -28.9375 22.679688 -28.316406 23.953125 -27.078125 C 25.234375 -25.847656 25.875 -24.070312 25.875 -21.75 L 25.875 -7.1875 C 25.875 -4.875 25.234375 -3.097656 23.953125 -1.859375 C 22.679688 -0.617188 20.570312 0 17.625 0 L 10.265625 0 C 7.328125 0 5.21875 -0.617188 3.9375 -1.859375 C 2.664062 -3.097656 2.03125 -4.875 2.03125 -7.1875 L 2.03125 -21.75 C 2.03125 -24.070312 2.664062 -25.847656 3.9375 -27.078125 C 5.21875 -28.316406 7.328125 -28.9375 10.265625 -28.9375 Z M 16.1875 -8.125 L 16.1875 -20.828125 C 16.1875 -21.671875 15.703125 -22.09375 14.734375 -22.09375 L 13.171875 -22.09375 C 12.203125 -22.09375 11.71875 -21.671875 11.71875 -20.828125 L 11.71875 -8.125 C 11.71875 -7.269531 12.203125 -6.84375 13.171875 -6.84375 L 14.734375 -6.84375 C 15.703125 -6.84375 16.1875 -7.269531 16.1875 -8.125 Z M 16.1875 -8.125 "/></g></g></g><g fill="#291b25" fill-opacity="1"><g transform="translate(290.50011, 288.563419)"><g><path d="M 17.28125 -28.9375 L 18.328125 -28.9375 C 23.472656 -28.9375 26.046875 -26.539062 26.046875 -21.75 L 26.046875 -7.1875 C 26.046875 -2.394531 23.472656 0 18.328125 0 L 17.28125 0 C 14.613281 0 12.914062 -1.039062 12.1875 -3.125 L 12.1875 7.484375 L 2.3125 7.484375 L 2.3125 -28.9375 L 12 -28.9375 L 12 -25.234375 C 12.539062 -27.703125 14.300781 -28.9375 17.28125 -28.9375 Z M 16.1875 -8.53125 L 16.1875 -20.421875 C 16.1875 -21.265625 15.703125 -21.6875 14.734375 -21.6875 L 13.75 -21.6875 C 12.707031 -21.6875 12.1875 -21.109375 12.1875 -19.953125 L 12.1875 -8.984375 C 12.1875 -7.828125 12.707031 -7.25 13.75 -7.25 L 14.734375 -7.25 C 15.703125 -7.25 16.1875 -7.675781 16.1875 -8.53125 Z M 16.1875 -8.53125 "/></g></g></g></svg>